<svg width="221" height="221" viewBox="0 0 221 221" fill="none" xmlns="http://www.w3.org/2000/svg">
<circle cx="110.5" cy="110.5" r="61.9286" fill="#5ED9EA"/>
<path d="M110.5 0L131.532 36.4286H89.4679L110.5 0Z" fill="#5ED9EA"/>
<path d="M110.5 221L89.468 184.571H131.532L110.5 221Z" fill="#5ED9EA"/>
<path d="M221 110.5L184.571 131.532L184.571 89.468L221 110.5Z" fill="#5ED9EA"/>
<path d="M1.06156e-06 110.5L36.4286 89.4679L36.4286 131.532L1.06156e-06 110.5Z" fill="#5ED9EA"/>
<path d="M188.635 32.3647L177.748 72.9955L148.005 43.2517L188.635 32.3647Z" fill="#5ED9EA"/>
<path d="M32.3646 188.635L43.2516 148.004L72.9954 177.748L32.3646 188.635Z" fill="#5ED9EA"/>
<path d="M188.635 188.635L148.005 177.748L177.748 148.005L188.635 188.635Z" fill="#5ED9EA"/>
<path d="M32.3646 32.3646L72.9954 43.2516L43.2516 72.9954L32.3646 32.3646Z" fill="#5ED9EA"/>
</svg>
